<svg width="131" height="32" viewBox="0 0 131 32" fill="none" xmlns="http://www.w3.org/2000/svg">
<path d="M6.1871 15.1087V12.3466H9.05968V14.9153C9.05968 18.0089 7.5129 19.7766 4.52984 19.7766C1.54677 19.7766 0 18.0089 0 14.9153V4.86129C0 1.76774 1.54677 0 4.52984 0C7.5129 0 9.05968 1.76774 9.05968 4.86129V6.73952H6.1871V4.66794C6.1871 3.28689 5.57944 2.7621 4.6127 2.7621C3.64597 2.7621 3.03831 3.28689 3.03831 4.66794V15.1087C3.03831 16.4897 3.64597 16.9869 4.6127 16.9869C5.57944 16.9869 6.1871 16.4897 6.1871 15.1087Z" fill="black"/>
<path d="M9.96405 19.5833H9.49449V16.8212C10.8755 16.8212 11.3175 16.6278 11.3727 14.8325L11.8699 0.220967H20.46V19.5556H17.3665V2.98306H14.7149L14.3834 14.6667C14.2729 18.2022 13.0024 19.5833 9.96405 19.5833Z" fill="black"/>
<path d="M32.2319 0.220967H29.0555L27.6745 6.85L26.9563 11.3522L26.0172 6.82238L24.36 0.220967H21.3493L25.5477 15.1363L25.52 15.302C25.2715 16.7107 24.3876 16.9869 22.8408 16.8764V19.5833C27.0668 19.8595 28.2545 18.1194 28.9727 14.6391L32.2319 0.220967Z" fill="black"/>
<path d="M36.0216 2.98306V19.5556H32.9833V0.220967H40.9934V2.98306H36.0216Z" fill="black"/>
<path fillRule="evenodd" clipRule="evenodd" d="M49.2309 0.220967H44.7839L41.6904 19.5556H44.4801L45.0049 16.0478H48.7337L49.2585 19.5556H52.3245L49.2309 0.220967ZM46.8555 3.64597L48.3194 13.4238H45.3916L46.8555 3.64597Z" fill="black"/>
<path d="M63.4143 2.98306H59.9617V19.5556H56.9234V0.220967H66.5078V19.5556H63.4143V2.98306Z" fill="black"/>
<path fillRule="evenodd" clipRule="evenodd" d="M67.9098 14.9153C67.9098 18.0089 69.5395 19.7766 72.5225 19.7766C75.5056 19.7766 77.1352 18.0089 77.1352 14.9153V4.86129C77.1352 1.76774 75.5056 0 72.5225 0C69.5395 0 67.9098 1.76774 67.9098 4.86129V14.9153ZM70.9481 4.66794C70.9481 3.28689 71.5558 2.7621 72.5225 2.7621C73.4893 2.7621 74.0969 3.28689 74.0969 4.66794V15.1087C74.0969 16.4897 73.4893 17.0145 72.5225 17.0145C71.5558 17.0145 70.9481 16.4897 70.9481 15.1087V4.66794Z" fill="black"/>
<path d="M78.1706 19.5833H77.701V16.8212C79.0821 16.8212 79.524 16.6278 79.5792 14.8325L80.0764 0.220967H88.6665V19.5556H85.573V2.98306H82.9214L82.5899 14.6667C82.4794 18.2022 81.2089 19.5833 78.1706 19.5833Z" fill="black"/>
<path d="M89.5558 2.98306H92.7322V19.5556H95.7705V2.98306H98.9469V0.220967H89.5558V2.98306Z" fill="black"/>
<path fillRule="evenodd" clipRule="evenodd" d="M102.025 0.220967H106.472L109.566 19.5556H106.5L105.975 16.0478H102.246L101.721 19.5556H98.9316L102.025 0.220967ZM105.561 13.4238L104.097 3.64597L102.633 13.4238H105.561Z" fill="black"/>
<path fillRule="evenodd" clipRule="evenodd" d="M115.013 0.220967H110.428V19.5556H115.207C118.245 19.5556 119.819 17.9536 119.819 14.9706V13.3962C119.819 11.3522 119.184 9.88831 117.554 9.25302C118.908 8.61774 119.515 7.34718 119.515 5.35847V4.66794C119.515 1.68488 118.162 0.220967 115.013 0.220967ZM114.82 10.855C116.201 10.855 116.781 11.4075 116.781 13.2028V14.8877C116.781 16.324 116.229 16.7935 115.207 16.7935H113.466V10.855H114.82ZM114.93 2.98306C116.008 2.98306 116.477 3.59073 116.477 4.97177V6.04899C116.477 7.59577 115.787 8.09294 114.654 8.09294H113.466V2.98306H114.93Z" fill="black"/>
<path d="M128.002 5.93851L126.759 10.6893L124.218 19.5556H121.097V0.220967H123.804V12.4571L124.908 8.20343L127.394 0.220967H130.737V19.5556H128.002V5.93851Z" fill="black"/>
<path d="M45.9359 26.7618C46.3809 26.8832 46.7281 27.0955 46.9775 27.3989C47.2269 27.6955 47.3516 28.0528 47.3516 28.4708C47.3516 28.8888 47.2168 29.2562 46.9472 29.573C46.6842 29.8832 46.3303 30.1225 45.8854 30.291C45.4472 30.4528 44.9685 30.5337 44.4494 30.5337C43.9775 30.5337 43.509 30.4629 43.0438 30.3214C42.5786 30.1798 42.1539 29.9674 41.7697 29.6843L42.1236 28.936C42.4337 29.1787 42.7809 29.3607 43.1651 29.482C43.5494 29.6034 43.9371 29.6641 44.3281 29.6641C44.8944 29.6641 45.3696 29.5461 45.7539 29.3101C46.1382 29.0674 46.3303 28.7371 46.3303 28.3191C46.3303 27.9618 46.1854 27.6888 45.8955 27.5C45.6056 27.3045 45.1977 27.2068 44.6719 27.2068H43.0944V26.3877H44.6011C45.0528 26.3877 45.4033 26.2967 45.6528 26.1146C45.909 25.9259 46.037 25.6663 46.037 25.336C46.037 24.9652 45.8719 24.672 45.5415 24.4562C45.2112 24.2405 44.7932 24.1326 44.2876 24.1326C43.9573 24.1326 43.6202 24.1798 43.2764 24.2742C42.9393 24.3686 42.6191 24.5102 42.3157 24.6989L41.9921 23.8697C42.3494 23.6675 42.727 23.5158 43.1247 23.4147C43.5225 23.3135 43.9202 23.263 44.318 23.263C44.8168 23.263 45.2753 23.3405 45.6932 23.4956C46.1112 23.6506 46.4415 23.8764 46.6842 24.1731C46.9337 24.4697 47.0584 24.8169 47.0584 25.2146C47.0584 25.5719 46.9573 25.8854 46.755 26.1551C46.5595 26.4247 46.2865 26.627 45.9359 26.7618Z" fill="black"/>
<path fillRule="evenodd" clipRule="evenodd" d="M10.0167 30.5337C9.30211 30.5337 8.65829 30.3787 8.08526 30.0686C7.51223 29.7517 7.06055 29.3169 6.73021 28.7641C6.40662 28.2113 6.24482 27.5944 6.24482 26.9135C6.24482 26.2326 6.40662 25.6158 6.73021 25.063C7.06055 24.5102 7.51223 24.0787 8.08526 23.7686C8.65829 23.4517 9.30211 23.2933 10.0167 23.2933C10.7246 23.2933 11.365 23.4517 11.938 23.7686C12.5111 24.0787 12.9594 24.5102 13.283 25.063C13.6066 25.609 13.7684 26.2259 13.7684 26.9135C13.7684 27.6011 13.6066 28.2214 13.283 28.7742C12.9594 29.3202 12.5111 29.7517 11.938 30.0686C11.365 30.3787 10.7246 30.5337 10.0167 30.5337ZM10.0167 29.6337C10.5358 29.6337 11.001 29.5157 11.4122 29.2798C11.8302 29.0438 12.1571 28.7202 12.3931 28.309C12.6358 27.891 12.7571 27.4259 12.7571 26.9135C12.7571 26.4012 12.6358 25.9394 12.3931 25.5281C12.1571 25.1101 11.8302 24.7832 11.4122 24.5472C11.001 24.3113 10.5358 24.1933 10.0167 24.1933C9.49761 24.1933 9.0257 24.3113 8.60099 24.5472C8.18301 24.7832 7.85268 25.1101 7.60998 25.5281C7.37403 25.9394 7.25605 26.4012 7.25605 26.9135C7.25605 27.4259 7.37403 27.891 7.60998 28.309C7.85268 28.7202 8.18301 29.0438 8.60099 29.2798C9.0257 29.5157 9.49761 29.6337 10.0167 29.6337Z" fill="black"/>
<path d="M2.4674 27.3382H0.991006V30.4528H0V23.3742H0.991006V26.4483H2.48763L4.71233 23.3742H5.79435L3.26627 26.8023L5.9157 30.4528H4.76289L2.4674 27.3382Z" fill="black"/>
<path d="M19.6463 27.3382H20.9912L22.9733 30.4528H24.1564L21.8205 26.7922L23.9845 23.3742H22.9025L21.0014 26.4483H19.6463V23.3742H18.6553V26.4483H17.28L15.389 23.3742H14.307L16.471 26.7719L14.1351 30.4528H15.3182L17.3003 27.3382H18.6553V30.4528H19.6463V27.3382Z" fill="black"/>
<path d="M30.2527 29.573V30.4528H25.1156V23.3742H30.1111V24.254H26.1269V26.4281H29.6763V27.2877H26.1269V29.573H30.2527Z" fill="black"/>
<path d="M36.816 30.4528H37.8272V23.3742H36.816V26.418H32.7508V23.3742H31.7396V30.4528H32.7508V27.2978H36.816V30.4528Z" fill="black"/>
<path d="M56.6262 30.4528H57.6374V23.3742H56.6262V26.418H52.5611V23.3742H51.5498V30.4528H52.5611V27.2978H56.6262V30.4528Z" fill="black"/>
<path fillRule="evenodd" clipRule="evenodd" d="M64.345 28.6832H60.5833L59.8046 30.4528H58.7631L61.9687 23.3742H62.9698L66.1855 30.4528H65.1237L64.345 28.6832ZM63.9911 27.8742L62.4642 24.4057L60.9372 27.8742H63.9911Z" fill="black"/>
<path d="M68.4511 30.0686C69.0242 30.3787 69.6646 30.5337 70.3725 30.5337C70.9253 30.5337 71.4309 30.4393 71.8893 30.2506C72.3545 30.0618 72.7488 29.7854 73.0724 29.4214L72.4151 28.7843C71.8758 29.3506 71.2118 29.6337 70.423 29.6337C69.8972 29.6337 69.4219 29.5157 68.9972 29.2798C68.5725 29.0438 68.2388 28.7202 67.9961 28.309C67.7601 27.891 67.6421 27.4259 67.6421 26.9135C67.6421 26.4012 67.7601 25.9394 67.9961 25.5281C68.2388 25.1101 68.5725 24.7832 68.9972 24.5472C69.4219 24.3113 69.8972 24.1933 70.423 24.1933C71.2185 24.1933 71.8826 24.4731 72.4151 25.0326L73.0724 24.3955C72.7488 24.0315 72.3578 23.7585 71.8994 23.5765C71.441 23.3877 70.9354 23.2933 70.3826 23.2933C69.6747 23.2933 69.0343 23.4517 68.4612 23.7686C67.8882 24.0787 67.4399 24.5102 67.1163 25.063C66.7927 25.609 66.6309 26.2259 66.6309 26.9135C66.6309 27.6011 66.7927 28.2214 67.1163 28.7742C67.4399 29.3202 67.8848 29.7517 68.4511 30.0686Z" fill="black"/>
<path d="M76.4533 27.2573H79.1735V28.0966H76.4533V27.2573Z" fill="black"/>
<path fillRule="evenodd" clipRule="evenodd" d="M90.1086 32V29.573H89.067V23.3742H84.0918L84.021 25.6495C83.9805 26.8832 83.8693 27.8405 83.6873 28.5214C83.5053 29.1955 83.1918 29.5461 82.7468 29.573H82.403L82.3929 32H83.3334L83.3435 30.4528H89.1681V32H90.1086ZM84.6682 28.218C84.7963 27.5641 84.8772 26.7382 84.9109 25.7405L84.9614 24.254H88.0659V29.573H84.0715C84.3479 29.3236 84.5468 28.8719 84.6682 28.218Z" fill="black"/>
<path d="M96.527 29.573V30.4528H91.3899V23.3742H96.3854V24.254H92.4012V26.4281H95.9506V27.2877H92.4012V29.573H96.527Z" fill="black"/>
<path d="M103.121 30.4528H104.112V23.3742H98.0139V30.4528H99.015V24.254H103.121V30.4528Z" fill="black"/>
<path d="M112.012 23.3742L108.867 29.209C108.618 29.6742 108.325 30.0214 107.988 30.2506C107.65 30.4798 107.283 30.5944 106.885 30.5944C106.575 30.5944 106.258 30.5236 105.935 30.382L106.198 29.573C106.447 29.6607 106.67 29.7045 106.865 29.7045C107.31 29.7045 107.677 29.4686 107.967 28.9966L108.129 28.7438L105.277 23.3742H106.359L108.655 27.8641L111.011 23.3742H112.012Z" fill="black"/>
<path d="M115.467 24.254H117.893V23.3742H112.059V24.254H114.476V30.4528H115.467V24.254Z" fill="black"/>
<path fillRule="evenodd" clipRule="evenodd" d="M119.505 28.6832L118.727 30.4528H117.685L120.891 23.3742H121.892L125.107 30.4528H124.046L123.267 28.6832H119.505ZM122.913 27.8742L121.386 24.4057L119.859 27.8742H122.913Z" fill="black"/>
<path d="M128.31 24.254H130.737V23.3742H124.902V24.254H127.319V30.4528H128.31V24.254Z" fill="black"/>
</svg>